<?xml version="1.0" standalone="no"?>
<!DOCTYPE svg PUBLIC "-//W3C//DTD SVG 20010904//EN"
 "http://www.w3.org/TR/2001/REC-SVG-20010904/DTD/svg10.dtd">
<svg version="1.0" xmlns="http://www.w3.org/2000/svg"
 width="16.000000pt" height="16.000000pt" viewBox="0 0 16.000000 16.000000"
 preserveAspectRatio="xMidYMid meet">
<metadata>
Created by potrace 1.11, written by Peter Selinger 2001-2013
</metadata>
<g transform="translate(0.000000,16.000000) scale(0.006154,-0.006154)"
fill="#000000" stroke="none">
<path d="M85 1921 c-16 -5 -20 -14 -20 -46 0 -22 4 -46 9 -54 6 -9 5 -12 0 -8
-6 3 -9 -29 -9 -79 0 -62 3 -84 13 -84 8 0 10 -5 6 -12 -5 -8 0 -7 11 2 17 14
18 13 11 -4 -7 -19 -6 -19 13 -2 12 11 21 14 26 7 3 -6 11 -11 16 -11 6 0 8 4
5 8 -3 5 1 9 9 9 8 0 15 -5 15 -11 0 -6 5 -4 10 4 6 10 10 11 10 3 0 -7 5 -13
11 -13 5 0 7 6 3 13 -6 9 -4 9 8 -1 13 -10 17 -10 21 0 4 11 6 10 6 0 1 -8 6
-10 14 -5 17 10 57 12 51 1 -3 -4 0 -8 5 -8 6 0 11 4 11 8 0 10 30 9 48 -2 7
-4 12 -2 12 6 0 10 3 9 9 -1 8 -12 12 -12 25 -2 13 11 16 11 16 0 0 -12 2 -12
9 0 7 11 9 11 14 0 5 -12 7 -12 15 0 7 10 11 10 17 1 6 -9 10 -9 16 1 6 10 9
11 9 2 0 -7 5 -13 11 -13 5 0 8 4 5 8 -6 11 34 9 51 -1 6 -4 14 -1 16 5 4 10
6 10 6 0 1 -9 6 -10 20 -2 13 7 22 7 26 0 3 -5 11 -10 16 -10 6 0 8 4 5 8 -3
5 1 9 9 9 8 0 15 -3 15 -7 0 -3 9 -6 21 -7 18 -2 19 0 7 15 -9 13 -7 12 10 -2
17 -14 22 -16 22 -5 0 11 2 11 10 -1 9 -13 10 -13 10 0 0 13 1 13 10 0 8 -12
10 -12 10 -1 0 11 3 11 15 1 8 -6 19 -9 24 -6 5 4 13 1 17 -5 4 -8 9 -7 15 2
7 12 9 12 9 0 0 -7 6 -11 14 -8 8 3 16 1 18 -4 2 -6 15 -12 30 -12 14 -1 24
-5 22 -9 -2 -4 5 -9 16 -13 11 -3 20 -11 20 -17 0 -6 3 -9 6 -5 8 8 25 -10 43
-45 8 -15 18 -25 23 -22 4 3 8 -2 8 -10 0 -9 4 -16 10 -16 5 0 9 -3 9 -7 -3
-20 2 -34 10 -29 11 7 23 -22 14 -36 -3 -6 -1 -8 4 -5 10 7 28 -20 25 -35 -1
-5 5 -8 13 -8 8 0 14 -3 14 -7 -3 -20 2 -34 11 -28 9 5 15 -16 11 -38 -1 -5 2
-6 7 -3 5 3 15 -6 22 -19 7 -14 17 -25 22 -25 5 0 7 -4 3 -9 -3 -5 -1 -12 5
-16 6 -4 7 -11 4 -17 -5 -8 -1 -9 10 -5 9 4 15 3 11 -3 -3 -5 4 -18 16 -29 12
-11 18 -24 14 -32 -5 -7 -4 -10 1 -6 6 3 16 -3 23 -15 10 -16 10 -19 -1 -13
-7 5 -4 -1 7 -12 11 -11 23 -19 27 -16 4 2 5 -3 2 -11 -4 -9 1 -18 10 -22 9
-3 16 -10 16 -16 0 -5 7 -16 15 -25 8 -8 13 -18 10 -23 -3 -5 4 -11 14 -15 11
-3 18 -12 15 -19 -3 -8 4 -16 16 -19 12 -3 19 -10 15 -16 -3 -6 1 -11 10 -11
9 0 13 -5 10 -10 -4 -6 -3 -10 2 -9 20 3 34 -2 28 -11 -3 -6 1 -7 9 -4 9 4 16
1 16 -6 0 -7 7 -10 16 -6 9 4 13 2 8 -5 -4 -7 -1 -10 7 -7 8 3 22 1 32 -4 11
-6 17 -5 17 2 0 7 6 8 19 0 13 -6 22 -7 26 0 3 5 13 6 22 3 12 -5 14 -3 8 8
-7 12 -6 12 7 1 11 -9 17 -9 20 -2 2 6 13 12 25 12 14 2 19 7 15 17 -4 10 -1
13 10 8 10 -3 19 0 22 9 3 9 11 12 16 9 6 -4 9 -3 8 2 -3 8 18 36 55 75 9 10
14 18 10 18 -4 0 2 7 13 16 10 8 12 12 4 8 -13 -7 -13 -5 -1 9 7 9 17 14 22
11 5 -3 6 3 2 12 -4 12 -3 15 5 10 7 -4 12 -1 12 8 0 8 13 27 29 42 16 15 27
33 24 41 -3 7 0 13 6 13 6 0 16 11 21 25 5 14 14 25 20 25 6 0 8 5 5 10 -3 5
1 10 9 10 9 0 16 6 16 14 0 8 7 22 16 30 8 9 13 16 10 16 -3 0 3 9 14 20 12
12 18 26 14 32 -4 6 -3 8 4 4 6 -3 13 3 17 14 4 11 11 17 17 14 7 -5 9 -1 5 9
-3 10 -2 17 3 17 5 0 12 9 15 20 4 11 10 18 15 15 11 -7 22 24 13 37 -3 7 -1
8 5 4 11 -6 38 31 34 47 -1 4 3 7 9 7 5 0 7 4 4 10 -4 6 1 7 12 3 10 -3 15 -2
10 2 -4 5 0 17 10 27 9 10 13 18 10 18 -4 0 1 8 11 18 9 11 21 17 26 14 5 -3
6 0 2 6 -7 12 0 23 39 64 12 13 14 18 5 14 -9 -5 -8 -2 2 7 10 8 18 20 18 26
0 7 4 10 9 7 5 -3 12 1 15 10 4 10 2 13 -7 8 -6 -4 -3 3 8 14 36 38 50 56 50
67 1 5 6 9 13 7 7 -1 12 5 12 14 0 9 8 23 17 30 15 10 16 15 5 26 -15 15 -44
17 -54 3 -5 -6 -8 -5 -8 2 0 9 -7 10 -23 4 -13 -5 -29 -6 -36 -2 -6 4 -31 6
-54 4 -50 -5 -52 -5 -99 0 -21 2 -38 0 -38 -5 0 -5 -9 -4 -20 2 -12 6 -20 7
-20 1 0 -5 -10 -7 -22 -3 -17 4 -20 2 -15 -12 4 -10 3 -15 -3 -11 -9 6 -14 -7
-11 -27 0 -4 -5 -5 -12 -3 -13 5 -40 -43 -31 -57 3 -5 2 -7 -3 -6 -9 3 -55
-39 -50 -47 1 -2 -5 -13 -14 -23 -9 -10 -24 -33 -35 -50 -10 -18 -22 -32 -26
-32 -4 0 -8 -5 -8 -10 0 -6 -5 -16 -10 -23 -45 -53 -69 -91 -63 -100 3 -5 2
-7 -3 -4 -6 3 -22 -14 -38 -39 -15 -24 -33 -41 -38 -37 -7 4 -8 1 -3 -6 4 -8
-4 -25 -21 -43 -16 -17 -22 -27 -14 -23 13 8 13 6 1 -8 -7 -9 -17 -14 -22 -11
-5 3 -6 -2 -3 -10 3 -9 -3 -19 -16 -26 -11 -6 -18 -15 -15 -21 4 -5 1 -9 -5
-9 -6 0 -9 -4 -6 -9 3 -5 -1 -11 -9 -15 -8 -3 -15 -13 -15 -21 0 -9 -4 -14 -9
-11 -5 4 -12 0 -15 -6 -4 -10 -7 -10 -12 -1 -3 6 -14 21 -25 34 -11 13 -17 29
-14 36 2 8 0 11 -5 8 -6 -3 -10 -2 -10 3 0 6 -13 24 -29 41 -16 17 -25 31 -21
31 5 0 -4 15 -21 32 -16 18 -29 40 -29 50 0 10 -6 17 -12 15 -7 -1 -13 7 -13
18 0 13 -6 19 -18 17 -10 -2 -15 2 -12 11 3 7 -3 24 -14 36 -12 13 -18 28 -14
34 3 6 1 7 -5 3 -7 -4 -12 -1 -12 8 0 8 -10 22 -22 30 -12 9 -18 16 -13 16 6
0 1 7 -9 15 -11 8 -14 15 -8 15 7 0 3 9 -8 20 -11 11 -24 20 -30 20 -9 0 -14
15 -11 33 1 5 -3 6 -9 2 -5 -3 -10 -2 -10 4 0 5 -9 13 -20 16 -11 4 -18 11
-15 16 4 5 0 9 -8 9 -8 0 -20 7 -27 15 -7 9 -15 13 -18 11 -2 -3 -11 2 -19 10
-8 8 -20 11 -26 7 -6 -4 -8 -1 -5 8 4 11 -1 15 -21 15 -16 -1 -25 4 -23 12 1
8 -2 11 -7 8 -5 -4 -13 -2 -16 4 -5 8 -11 7 -21 -1 -11 -9 -14 -9 -14 1 0 7
-7 10 -16 6 -10 -4 -13 -2 -8 6 5 7 0 9 -14 6 -12 -4 -22 -3 -22 1 0 4 -19 7
-42 7 -23 -1 -48 5 -55 12 -11 11 -13 11 -13 0 0 -10 -2 -10 -9 1 -6 9 -10 10
-16 2 -4 -7 -11 -8 -18 -3 -7 5 -30 7 -52 5 -48 -4 -50 -4 -95 0 -19 2 -38 -2
-42 -7 -5 -8 -8 -7 -8 1 0 7 -10 10 -27 6 -16 -3 -32 -5 -38 -5 -5 1 -27 3
-47 5 -21 2 -38 0 -38 -5 0 -5 -10 -4 -21 3 -16 8 -20 8 -14 -1 5 -9 2 -10
-11 -3 -11 5 -37 8 -59 6 -50 -5 -52 -5 -97 0 -21 2 -38 0 -38 -5 0 -5 -10 -4
-21 3 -16 8 -20 8 -14 -1 5 -9 2 -10 -11 -3 -24 10 -55 10 -73 -1 -7 -5 -16
-4 -20 1 -3 5 -15 7 -26 4z"/>
<path d="M141 1543 c-6 -10 -11 -13 -11 -8 0 6 -15 10 -32 10 l-33 0 0 -75 c0
-41 4 -80 8 -87 4 -6 4 -14 0 -16 -10 -6 -10 -208 0 -224 4 -6 3 -14 -1 -17
-5 -3 -7 -27 -5 -53 3 -35 1 -44 -6 -33 -7 9 -11 10 -11 3 0 -6 4 -14 9 -17 4
-3 8 -44 7 -92 -1 -73 1 -87 16 -95 13 -7 18 -6 18 3 0 8 3 9 8 3 9 -13 46
-20 38 -7 -3 5 1 9 9 9 8 0 15 -3 15 -7 0 -3 9 -6 20 -7 11 -1 18 1 16 5 -6 9
36 8 51 -1 7 -4 15 -3 18 3 5 8 11 8 20 0 7 -6 16 -7 18 -3 6 10 48 10 64 0 7
-4 15 -3 18 3 4 7 12 7 18 2 15 -10 27 -10 46 2 9 6 12 5 7 -2 -4 -7 1 -10 14
-9 11 1 20 6 20 12 0 6 3 7 8 0 11 -15 32 -17 32 -3 0 10 2 10 9 0 11 -17 21
-17 32 0 5 7 9 8 9 3 0 -6 9 -11 20 -12 12 -1 18 3 14 9 -4 6 2 6 15 -1 16 -9
21 -9 21 1 0 8 3 9 8 3 11 -15 32 -17 32 -2 0 9 2 9 9 -1 11 -17 21 -17 32 0
5 7 9 8 9 3 0 -6 9 -11 20 -12 11 -1 18 1 16 5 -3 4 4 8 14 8 10 0 17 -3 15
-7 -5 -8 40 -3 54 6 6 3 11 0 11 -7 0 -9 3 -9 8 -2 4 6 17 10 30 9 12 -1 22 2
22 7 0 5 9 4 20 -2 15 -8 20 -8 18 1 -2 6 10 13 25 14 16 2 36 10 45 17 13 11
14 11 7 -2 -7 -12 -6 -13 7 -3 8 7 19 9 23 5 5 -4 5 -1 0 7 -6 11 -3 13 14 8
13 -3 20 -3 17 0 -3 3 17 17 44 31 27 13 61 35 74 47 14 13 27 20 30 17 3 -3
6 0 6 7 0 7 4 9 10 6 6 -3 7 1 4 10 -4 10 -2 15 7 13 8 -2 14 6 15 20 1 12 -3
22 -8 22 -5 0 -6 5 -3 10 3 6 -1 13 -9 16 -9 3 -16 10 -16 15 0 10 -1 11 -52
74 -18 22 -26 36 -18 30 9 -5 8 -2 -3 7 -10 10 -15 23 -11 29 4 7 3 9 -3 6 -5
-3 -17 9 -27 28 -15 27 -22 32 -39 26 -11 -4 -22 -18 -24 -31 -4 -31 -22 -51
-37 -43 -6 3 -8 3 -4 -2 10 -11 -11 -47 -23 -40 -5 4 -9 -2 -9 -12 0 -15 -2
-16 -10 -3 -9 13 -14 7 -11 -12 1 -8 -15 -12 -33 -9 -5 1 -17 -6 -27 -15 -11
-9 -19 -13 -19 -9 0 5 -5 4 -12 -3 -15 -15 -32 -16 -23 -2 9 15 -2 12 -19 -6
-9 -9 -16 -11 -16 -4 0 6 -5 8 -12 3 -21 -13 -42 -13 -50 0 -6 9 -8 9 -8 0 0
-9 -19 -11 -40 -3 -3 1 -9 1 -15 0 -31 -7 -66 -6 -71 1 -3 5 -11 6 -17 2 -17
-11 -30 -11 -46 1 -11 8 -13 8 -7 -2 5 -9 1 -11 -16 -8 -13 3 -25 5 -28 6 -3
2 -9 1 -15 0 -41 -9 -75 -8 -68 3 5 9 3 9 -8 1 -26 -19 -44 -11 -44 21 0 17
-4 33 -10 37 -6 5 -6 8 1 8 12 0 13 88 1 108 -5 7 -4 12 2 12 11 0 10 34 -1
45 -3 4 -2 20 2 36 6 20 5 29 -3 29 -8 0 -9 3 -1 8 13 9 13 94 -1 107 -11 11
-144 13 -162 2 -7 -4 -15 -2 -19 4 -5 8 -3 9 6 4 9 -5 11 -4 6 4 -4 6 -13 8
-19 4 -20 -12 -59 -15 -52 -3 3 5 4 10 1 10 -3 0 -10 -8 -15 -17z"/>
</g>
</svg>
